<?xml version="1.0" encoding="UTF-8"?><svg id="Layer_1" xmlns="http://www.w3.org/2000/svg" xmlns:xlink="http://www.w3.org/1999/xlink" viewBox="0 0 500 500"><defs><style>.cls-1{fill:url(#linear-gradient-2);}.cls-2{fill:url(#linear-gradient-6);}.cls-3{fill:url(#linear-gradient-5);}.cls-4{fill:url(#linear-gradient-7);}.cls-5{fill:url(#linear-gradient-9);}.cls-6{fill:url(#linear-gradient-3);}.cls-7{fill:#006838;}.cls-8{fill:url(#linear-gradient);}.cls-9{fill:url(#linear-gradient-4);}.cls-10{fill:url(#linear-gradient-8);}</style><linearGradient id="linear-gradient" x1="360.57" y1="251.22" x2="247.45" y2="251.22" gradientTransform="translate(0 502) scale(1 -1)" gradientUnits="userSpaceOnUse"><stop offset="0" stop-color="#f79a25"/><stop offset=".17" stop-color="#fab348"/><stop offset=".33" stop-color="#fcc664"/><stop offset=".47" stop-color="#fed175"/><stop offset=".58" stop-color="#ffd67b"/><stop offset=".75" stop-color="#e1a656"/><stop offset=".91" stop-color="#c87c36"/><stop offset="1" stop-color="#bf6d2a"/></linearGradient><linearGradient id="linear-gradient-2" x1="349.35" y1="107.13" x2="349.35" y2="231.15" xlink:href="#linear-gradient"/><linearGradient id="linear-gradient-3" x1="247.45" y1="83.47" x2="360.57" y2="83.47" xlink:href="#linear-gradient"/><linearGradient id="linear-gradient-4" x1="134.34" y1="81.79" x2="247.45" y2="81.79" xlink:href="#linear-gradient"/><linearGradient id="linear-gradient-5" x1="134.34" y1="250.48" x2="247.45" y2="250.48" xlink:href="#linear-gradient"/><linearGradient id="linear-gradient-6" x1="145.55" y1="229.27" x2="145.55" y2="102.96" xlink:href="#linear-gradient"/><linearGradient id="linear-gradient-7" x1="156.76" y1="166.09" x2="247.45" y2="166.09" gradientTransform="translate(0 502) scale(1 -1)" gradientUnits="userSpaceOnUse"><stop offset="0" stop-color="#fbc926"/><stop offset=".13" stop-color="#fcd951"/><stop offset=".27" stop-color="#fde877"/><stop offset=".39" stop-color="#fef293"/><stop offset=".5" stop-color="#fef8a4"/><stop offset=".58" stop-color="#fffbaa"/><stop offset=".78" stop-color="#dec267"/><stop offset=".93" stop-color="#ca9f3d"/><stop offset="1" stop-color="#c3922e"/></linearGradient><linearGradient id="linear-gradient-8" x1="230.03" y1="81.13" x2="316.32" y2="230.6" xlink:href="#linear-gradient"/><linearGradient id="linear-gradient-9" x1="178.4" y1="102.74" x2="264.24" y2="251.41" gradientTransform="translate(0 502) scale(1 -1)" gradientUnits="userSpaceOnUse"><stop offset="0" stop-color="#f79a25"/><stop offset=".18" stop-color="#fab348"/><stop offset=".35" stop-color="#fcc664"/><stop offset=".5" stop-color="#fed175"/><stop offset=".62" stop-color="#ffd67b"/><stop offset=".77" stop-color="#e1a656"/><stop offset=".92" stop-color="#c87c36"/><stop offset="1" stop-color="#bf6d2a"/></linearGradient></defs><polygon class="cls-7" points="500 237.93 439.13 237.93 439.13 456.76 381.68 456.76 381.68 404.27 404.98 404.27 405.03 257.51 405.03 219.71 377.15 195.15 249.99 96.14 122.85 195.15 90.89 219.71 90.89 262.8 90.95 404.21 113.37 404.21 113.37 456.76 55.53 456.76 55.53 237.93 0 237.93 249.99 43.24 346.53 118.43 346.53 86.69 404.92 86.69 404.92 163.89 500 237.93"/><g><g><g><polygon class="cls-8" points="360.57 271.31 338.14 284 247.45 240.89 247.45 217.55 360.57 271.31"/><polygon class="cls-1" points="360.57 270.85 360.57 394.87 338.14 382.95 338.14 283.54 360.57 270.85"/><polygon class="cls-6" points="360.57 394.87 247.45 454.12 247.45 430.47 338.14 382.95 360.57 394.87"/><polygon class="cls-9" points="247.45 430.47 247.45 454.12 134.34 399.04 156.76 386.3 247.45 430.47"/><polygon class="cls-3" points="247.45 217.55 247.45 240.89 156.76 285.48 134.34 273.19 247.45 217.55"/><polygon class="cls-2" points="156.76 285.02 156.76 386.3 134.34 399.04 134.34 272.73 156.76 285.02"/></g><polygon class="cls-4" points="247.45 240.89 247.45 430.93 156.76 386.76 156.76 285.48 247.45 240.89"/><polygon class="cls-10" points="338.14 284 338.14 383.41 247.45 430.93 247.45 240.89 338.14 284"/><polygon class="cls-5" points="247.45 240.89 247.45 430.93 156.76 386.76 156.76 285.48 247.45 240.89"/><path class="cls-7" d="m308.16,269.9l-27.97-12.34-.03-49.39c0-18.01-15.21-32.66-33.89-32.66s-33.89,14.65-33.89,32.66l.04,50.94-28.05,12.8v-63.73c0-32.34,27.76-58.65,61.89-58.65s61.89,26.31,61.89,58.65v61.73h.01Z"/></g><g><path class="cls-7" d="m244.65,385.04c-1.73,0-3.47-.04-5.18-.15v14.82h13.59v-15.12c-2.64.29-5.44.45-8.43.45h.01Z"/><path class="cls-7" d="m281.94,343.19c-2.04-3.25-4.68-5.88-7.95-7.87-3.25-2-6.86-3.57-10.8-4.76-3.38-1.02-6.74-1.91-10.12-2.73v-23.17c2.55.29,5.12.8,7.73,1.52,4.44,1.21,8.89,3.1,13.33,5.64l6.8-16.72c-4.45-2.81-9.56-4.91-15.37-6.32-4.13-.99-8.29-1.65-12.49-1.91v-14.85h-13.59v15.13c-5.33.57-9.96,1.76-13.92,3.55-5.94,2.67-10.37,6.27-13.33,10.75-2.95,4.48-4.42,9.44-4.42,14.88,0,5.08,1.03,9.24,3.07,12.51,2.02,3.25,4.68,5.89,7.94,7.87,3.27,2,6.88,3.63,10.8,4.9,3.28,1.06,6.57,1.98,9.85,2.75v22.79c-3.91-.38-7.79-1.23-11.61-2.5-5.57-1.86-10.4-4.24-14.47-7.13l-7.48,16.58c4.27,3.27,9.88,5.91,16.85,7.95,5.39,1.58,10.96,2.53,16.72,2.9,1.7.11,3.43.15,5.18.15,2.97,0,5.79-.15,8.43-.45,5.39-.59,10.06-1.8,14.06-3.63,5.94-2.72,10.4-6.29,13.38-10.75,2.99-4.44,4.48-9.34,4.48-14.67,0-4.97-1.02-9.1-3.06-12.37h-.01Zm-49.25-22.08c-2-1.51-2.99-3.47-2.99-5.92,0-2.07.59-3.91,1.76-5.5,1.19-1.58,3.13-2.87,5.85-3.87.67-.25,1.4-.46,2.16-.66v19.22c-2.76-.86-5.04-1.95-6.78-3.27h0Zm28.53,41.39c-1.27,1.54-3.24,2.73-5.91,3.59-.7.21-1.42.42-2.25.59v-18.95c2.89.92,5.23,2.05,7.06,3.42,2,1.51,2.99,3.52,2.99,6.04,0,2-.64,3.76-1.9,5.32h.01Z"/></g></g></svg>