<svg width="839.892" height="823.033" viewBox="0 0 840 823.033" xmlns="http://www.w3.org/2000/svg" class="stepIcon_3u5pW stepIcon--3_cl3JZ"><defs><linearGradient id="Dégradé_sans_nom_4" x1="57.861" y1="543.515" x2="544.917" y2="543.515" gradientUnits="userSpaceOnUse"><stop offset="0" stop-color="#dce7ee"></stop><stop offset="1" stop-color="#93ccde"></stop></linearGradient><linearGradient id="Dégradé_sans_nom_188" x1="-2423.996" y1="538.135" x2="-2349.074" y2="538.135" gradientTransform="rotate(4.583 -1759.185 39028.716)" gradientUnits="userSpaceOnUse"><stop offset="0"></stop><stop offset="1" stop-color="#2a3056"></stop></linearGradient><style>.cls-3{fill:#232c59}.cls-5{fill:#fff}.cls-7{fill:#93ccde}.cls-8{fill:#dce7ee}.cls-10{fill:#b3b3b2}.cls-11{fill:#a67c52}.cls-14{fill:#f5ba93}</style></defs><g style="isolation:isolate"><g id="Calque_1" data-name="Calque 1"><path d="M810.066 336.533c-16.07-105.185-28.97-177.877-87-217.71-97.881-67.188-207.195 41.884-345.847-31.305-68.267-36.035-70.826-77.815-128.643-83.361-102.29-9.811-186.06 112.262-193.319 122.73C11.147 190.496-3.587 268.057 14.295 342c11.613 48.028 19.462 97.734 17.308 147.086-3.749 85.89-1.592 166.063 81.763 217.286 74.426 45.737 168.094 86.075 257.454 93.14 60.728 4.801 128.83-2.97 187.361-18.78 298.285-80.575 273.98-299.576 251.885-444.2z" fill="#eae6df" opacity=".4"></path><path d="M829.364 750.257l-793.127-6.971v20.626c0 5.598 3.46 10.359 8.144 11.207l224.273 40.617a30.558 30.558 0 008.046.381l544.045-46.31c4.857-.413 8.619-5.188 8.619-10.94z" class="cls-3"></path><path d="M541.541 716.82L44.438 754.554c-8.895.675-16.128-6.5-16.128-16.027V356.819c0-9.528 7.233-17.252 16.128-17.252h497.103c7.328 0 13.254 6.982 13.254 15.595V700.22c0 8.612-5.925 16.044-13.254 16.6z" class="cls-3"></path><path d="M549.467 716.82L52.365 754.554c-8.896.675-16.128-6.5-16.128-16.027V356.819c0-9.528 7.232-17.252 16.128-17.252h497.102c7.329 0 13.254 6.982 13.254 15.595V700.22c0 8.612-5.925 16.044-13.254 16.6z" class="cls-3"></path><path d="M533.981 692.493L70.982 725.27c-7.239.512-13.122-5.376-13.122-13.154V377.929c0-7.777 5.883-14.11 13.122-14.141l463-2.058c6.045-.027 10.935 5.694 10.935 12.779v304.383c0 7.084-4.89 13.173-10.936 13.601z" fill="url(#Dégradé_sans_nom_4)"></path><path d="M318.472 350.008c0 3.547-2.558 6.43-5.718 6.44-3.163.01-5.73-2.863-5.73-6.417s2.567-6.439 5.73-6.441c3.16-.002 5.718 2.871 5.718 6.418z" class="cls-5"></path><path d="M429.698 612.13c-38.322-22.146-68.454 5.917-97.534-21.772-17.63-16.787-8.975-29.305-30.669-54.39-24.027-27.785-39.67-18.446-63.817-43.452-30.533-31.62-15.262-56.22-41.562-78.92-31.905-27.54-66.314-2.05-96.685-28.463-13.1-11.391-20.287-27.953-24.04-45.566H45.673c-5.207 0-9.436 4.534-9.436 10.126v395.674c0 5.592 4.229 9.804 9.436 9.406l506.63-38.627a8.099 8.099 0 006.105-4.009c-37.087-1.452-59.871-14.806-74.435-28.61-28.492-27.007-23.55-53.64-54.275-71.396z" opacity=".48" fill="#fff" style="mix-blend-mode:soft-light"></path><path d="M569.28 715.109L36.237 754.827l232.417 42.092a30.558 30.558 0 008.046.381l552.663-47.044L577.76 715.38a40.04 40.04 0 00-8.48-.27z" class="cls-3"></path><path d="M114.016 755.826l443.775-33.559 137.344 18.885-439.952 35.874-141.167-21.2z" class="cls-3"></path><path d="M574.365 203.179l-433.95-14.26a25.448 25.448 0 00-26.399 25.641v422.95a25.153 25.153 0 0026.398 25.382l433.952-18.53c12.551-.536 22.687-11.927 22.687-25.445V228.4c0-13.518-10.136-24.81-22.688-25.221z" class="cls-7"></path><path d="M140.414 654.462a17.122 17.122 0 01-17.945-17.278V214.802a17.324 17.324 0 0117.945-17.455l433.952 13.677c8.55.27 15.462 7.956 15.462 17.17v391c0 9.213-6.912 16.968-15.462 17.322z" class="cls-7"></path><path d="M574.366 203.179l-433.952-14.26a25.449 25.449 0 00-26.398 25.641v19.016l483.037 12.382V228.4c0-13.518-10.135-24.81-22.687-25.221z" class="cls-8"></path><path d="M160.952 213.356a8.303 8.303 0 01-8.559 8.374 8.905 8.905 0 01-8.582-8.872 8.302 8.302 0 018.582-8.374 8.907 8.907 0 018.56 8.872zM190.828 214.224a8.244 8.244 0 01-8.477 8.335 8.841 8.841 0 01-8.5-8.828 8.243 8.243 0 018.5-8.335 8.843 8.843 0 018.477 8.828zM220.42 215.084a8.186 8.186 0 01-8.397 8.297 8.779 8.779 0 01-8.42-8.786 8.184 8.184 0 018.42-8.296 8.78 8.78 0 018.397 8.785z" class="cls-5"></path><path d="M405.686 365.773C355 292.02 267.27 315.486 211.774 233.999a178.368 178.368 0 01-21.459-43.44l-49.9-1.64a25.449 25.449 0 00-26.399 25.641v422.95a25.153 25.153 0 0026.398 25.382l418.058-17.852c-9.577-13.812-92.99-64.973-114.538-143.524-19.706-71.836-7.669-91.247-38.248-135.743z" opacity=".5" class="cls-5"></path><path d="M573.469 358.961l-427.087-.511v-13.958l427.087 1.731v12.738zM573.469 329.261l-427.087-3.631v-35.782l427.087 6.758v32.655zM212.472 434.427l-56.649.334v-54.12l56.65.068zm-50.04-7.081l41.543-.202v-39.107l-41.542-.016zM564.115 395.149l-328.039.19v-14.604l328.039.345v14.069zM564.115 417.815l-328.039 1.054v-13.793l328.039-.548v13.287zM212.472 514.19l-56.649.93V461l56.65-.529zm-50.04-6.557l41.543-.645v-39.107l-41.542.428zM564.115 471.745l-328.039 3.108v-14.605l328.039-2.571v14.068zM564.115 494.412l-328.039 3.97v-13.793l328.039-3.464v13.287zM212.472 593.952l-56.649 1.528v-54.12l56.65-1.126zm-50.04-5.212l41.543-1.093v-39.922l-41.542.871zM564.115 548.342l-328.039 6.024v-14.604l328.039-5.489v14.069zM564.115 571.008l-328.039 6.888v-13.793l328.039-6.382v13.287z" class="cls-5"></path><path d="M175.514 431.921a6.23 6.23 0 01-4.318-1.677l-17.015-16.1a5.624 5.624 0 010-8.246 6.363 6.363 0 018.673-.02l11.812 11.202 27.265-37.524a6.218 6.218 0 018.419-1.441 5.634 5.634 0 011.518 8.05l-31.343 43.228a6.207 6.207 0 01-4.466 2.501 6.173 6.173 0 01-.545.027zM176.998 512.523a6.23 6.23 0 01-4.317-1.678l-17.016-16.1a5.624 5.624 0 010-8.246 6.363 6.363 0 018.674-.02l11.81 11.203 27.267-37.525a6.217 6.217 0 018.418-1.441 5.634 5.634 0 011.518 8.05l-31.343 43.229a6.206 6.206 0 01-4.466 2.5 6.094 6.094 0 01-.545.028z" class="cls-10"></path><path d="M550.184 357.284s2.307-8.65.673-10.86-11.63-11.053-10.669-8.17a18.555 18.555 0 002.403 4.805s-5.382 2.5-1.922 6.248 4.615 4.613 4.806 7.977 2.402 4.518 4.709 0z" class="cls-11"></path><path d="M646.198 730.653s1.222 7.48 1.066 10.143-29.7 4.023-29.998 2.028 4.883-5.165 8.53-6.285 14.323-4.106 14.323-4.106z" class="cls-8"></path><path d="M639.026 723.194l.943 9.302s3.432 2.268 6.455.518l1.514-10.125z" class="cls-11"></path><path d="M698.911 742.78s1.222 7.48 1.067 10.143-29.7 4.024-29.999 2.03 4.884-5.167 8.53-6.286 14.323-4.107 14.323-4.107z" class="cls-8"></path><path d="M691.74 735.322l.943 9.302s3.431 2.268 6.455.517l1.513-10.125z" class="cls-11"></path><path d="M644.388 480.354l-10.246 20.77a1452.478 1452.478 0 00-3.235 128.424c.653 34.185 2.48 66.568 5.104 96.966l13.891-.637c6.696-13.289 14.6-33.422 15.327-58.273.759-25.923-7.1-29.365-6.602-54.185.646-32.17 14.136-40.753 21.323-79.449a207.203 207.203 0 002.4-57.577l-37.962 3.96z" class="cls-3"></path><path d="M682.35 476.393l-20.502 2.14c-12.302 21.407-15.737 43.689-13.578 53.544 3.054 13.945 11.133 18.412 10.689 32.412-.44 13.853-8.601 17.445-13.779 33.772-3.583 11.305-2.638 21.699-.599 42.025 4.106 40.944 13.993 53.466 5.712 66.89-2.354 3.814-6.593 8.356-14.9 11.824.203 2.511.403 5.03.618 7.514q6.945-.317 13.891-.637c6.696-13.29 14.6-33.421 15.327-58.273.76-25.923-7.1-29.366-6.602-54.185.646-32.17 14.136-40.752 21.323-79.448a207.203 207.203 0 002.4-57.578z" opacity=".3" style="mix-blend-mode:multiply"></path><path d="M662.76 492.818a1607.31 1607.31 0 0125.792 247.055l15.246.432c20.027-39.618 21.25-66.479 18.363-83.967-1.113-6.739-4.135-19.952-4.825-39.7-.48-13.767.398-24.243 1.495-36.837 2.405-27.612 5.324-33.64 5.743-54.761.394-19.822.475-29.851-5.183-35.706-14.907-15.423-53.688 2.12-56.631 3.484z" fill="url(#Dégradé_sans_nom_188)"></path><path d="M552.843 355.952l-10.139-.708c-7.974 32.22-2.254 63.476 15.742 74.97 28.116 17.959 80.369-15.876 91.693-52.718 4.97-16.17 3.838-39.508-6.095-44.042-2.758-1.259-7.036-1.454-16.306 3.75-27.684 15.543-28.412 44.92-42.485 47.407-6.258 1.107-16.362-2.883-32.41-28.66z" class="cls-14"></path><path d="M630.253 508.213c-4.87-8.08 1.246-15.872 2.638-31.18 1.578-17.35-5.105-20.238-11.715-48.99-4.395-19.122-8.615-37.479-3.579-58.967 2.414-10.299 6.508-27.766 20.964-36.203 7.46-4.353 17.645-3.918 37.712-2.868 24.814 1.298 37.221 1.946 46.475 6.819 1.354.713 29.504 16.025 31.442 40.983 1.972 25.403-25.692 28.817-29.382 62.692-1.656 15.207 1.296 38.596 3.21 53.766 1.84 14.566 3.104 18.296.23 22.706-6.928 10.63-28.139 7.6-70.56 1.542-16.64-2.377-23.802-4.27-27.435-10.3z" class="cls-14"></path><path d="M694.797 435.05c1.793 6.602 8.245 11.534 12.735 27.593.97 3.468 7.875 28.16-1.082 34.238-5.174 3.51-9.819-3.141-22.376-4.01-21.76-1.505-32.126 16.783-46.34 11.79a19.463 19.463 0 01-8.973-6.96c-.647 3.825-.536 7.147 1.491 10.512 3.634 6.03 10.796 7.923 27.436 10.3 42.421 6.057 63.632 9.087 70.56-1.542 2.874-4.41 1.61-8.14-.23-22.705-1.914-15.17-4.866-38.56-3.21-53.766 3.69-33.876 31.354-37.29 29.382-62.692a39.404 39.404 0 00-6.366-18.101c-35.094 14.2-58.665 54.596-53.027 75.343z" opacity=".75" fill="#f5ba93" style="mix-blend-mode:multiply"></path><path d="M739.122 485.019l-7.02 4.483a16.442 16.442 0 00-8.738-5.396c-5.134-1.128-11.028.49-11.165 2.129-.11 1.313 3.479 2.637 4.034 2.842 4.48 1.653 7.803.28 9.614 2.08a13.703 13.703 0 003.275 2.92 9.984 9.984 0 001.253.646c2.99 1.163 8.12-4.042 8.56-4.497z" class="cls-11"></path><path d="M718.378 392.929c-5.079-12.165-8.598-30.79-.575-58.451 52.862 20.83 79.821 70.208 69.295 109.352-8.678 32.27-40.249 47.987-47.291 51.294l-4.916-11.189c8.161-9.088 17.358-22.527 16.057-37.862-1.803-21.26-22.286-28.515-32.57-53.144z" class="cls-14"></path><path d="M679.754 310.126a23.188 23.188 0 015.045 11.364c1.656 9.615 12.299 9.854 15.064 11.251s-5.18 5.48-13.162 6.283-30.772-1.01-34.88-4.035 3.3-2.798 8.997-4.89 8.99-13.23 7.985-18.287 10.95-1.686 10.95-1.686z" class="cls-11"></path><path d="M668.573 299.672c-6.828-6.71-7.782-7.493-8.526-9.812-2.984-9.308 4.235-22.054 13.704-25.192.493-.163 6.842-2.196 9.266.56 2.059 2.34-.97 5.57.47 10.08 1.35 4.22 5.009 4.537 11.79 10.073 5.587 4.558 9.06 7.392 9.86 11.38 1.652 8.219-8.297 20.13-17.106 19.806-3.167-.117-4.028-1.735-19.458-16.895z"></path><path d="M687.17 317.836s-7.258 8.219-18.316 5.502c-9.9-2.433-7.373-25.154-.128-28.784 2.416-1.21 6.808-1.11 10.111.48 1.951.94 2.493 1.918 5.71 3.393 2.968 1.359 3.909 1.17 4.707 2.128.999 1.197 1.428 3.773-1.7 9.992 2.255-1.596 4.68-1.93 6.169-.875a3.471 3.471 0 011.103 1.537c.943 2.815-1.982 5.675-7.656 6.627z" class="cls-11"></path></g></g></svg>