<svg width="805.257" height="777.302" viewBox="0 0 805 778" xmlns="http://www.w3.org/2000/svg" class="stepIcon_3u5pW stepIcon--2_3Pp2W"><defs><linearGradient id="Dégradé_sans_nom_4" x1="43.846" y1="670.326" x2="578.29" y2="235.121" gradientUnits="userSpaceOnUse"><stop offset="0" stop-color="#dce7ee"></stop><stop offset="1" stop-color="#93ccde"></stop></linearGradient><linearGradient id="Dégradé_sans_nom_194" x1="1384.644" y1="627.963" x2="1508.132" y2="627.963" gradientTransform="rotate(-.138 -779.327 328188.813)" gradientUnits="userSpaceOnUse"><stop offset="0"></stop><stop offset="1" stop-color="#2a3056"></stop></linearGradient><linearGradient id="Dégradé_sans_nom_168" x1="240.06" y1="435.466" x2="486.321" y2="435.466" gradientUnits="userSpaceOnUse"><stop offset="0" stop-color="#2a3056"></stop><stop offset="1"></stop></linearGradient><linearGradient id="Dégradé_sans_nom_164" x1="734.257" y1="142.216" x2="514.92" y2="142.216" gradientUnits="userSpaceOnUse"><stop offset="0"></stop><stop offset=".503" stop-color="#2a3056"></stop></linearGradient><style>.cls-3{fill:#232c59}.cls-5{fill:#fff}.cls-10{mix-blend-mode:soft-light}.cls-8{fill:#93ccde}.cls-9{fill:#dce7ee}.cls-12{fill:#c59b6c}.cls-16{mix-blend-mode:multiply;opacity:.3}.cls-15,.cls-16{fill:#f5ba93}.cls-17{fill:#b3b3b2}</style></defs><g style="isolation:isolate"><g id="Calque_1" data-name="Calque 1"><path d="M529.486 27c-56.621-12.046-115.49-17.82-173.05-14.139-51.015 3.262-108.843 12.165-149.896 44.054-19.564 15.197-42.896 42.505-49.295 66.596-.001.003-33.686 126.806-101.054 153.978s-114.153 490.918 396.73 445.63c0 0 300.065-11.867 318.132-353.69 4.364-82.573 1.926-173.35-50.36-242.396-40.067-52.91-96.204-76.435-160.713-92.897Q544.865 30.28 529.486 27z" fill="#eae6df" opacity=".4"></path><path d="M803.155 703.771L10.028 696.8v20.626c0 5.599 3.46 10.36 8.144 11.207l224.273 40.617a30.56 30.56 0 008.047.381l544.044-46.31c4.857-.413 8.62-5.188 8.62-10.94z" class="cls-3"></path><path d="M515.332 670.335L18.23 708.068c-8.895.675-16.128-6.5-16.128-16.027V310.333c0-9.527 7.233-17.251 16.128-17.251h497.102c7.329 0 13.254 6.982 13.254 15.595v345.057c0 8.612-5.925 16.044-13.254 16.6z" class="cls-3"></path><path d="M523.259 670.335L26.156 708.068c-8.895.675-16.128-6.5-16.128-16.027V310.333c0-9.527 7.233-17.251 16.128-17.251H523.26c7.328 0 13.253 6.982 13.253 15.595v345.057c0 8.612-5.925 16.044-13.253 16.6z" class="cls-3"></path><path d="M507.773 646.008l-463 32.776c-7.238.512-13.121-5.376-13.121-13.154V331.444c0-7.778 5.883-14.11 13.121-14.142l463-2.058c6.045-.027 10.935 5.694 10.935 12.778v304.384c0 7.084-4.89 13.174-10.935 13.602z" fill="url(#Dégradé_sans_nom_4)"></path><path d="M292.264 303.522c0 3.547-2.559 6.43-5.718 6.44-3.164.01-5.731-2.862-5.731-6.417s2.567-6.439 5.73-6.441c3.16-.002 5.719 2.872 5.719 6.418z" class="cls-5"></path><path d="M403.49 565.645c-38.322-22.147-68.455 5.916-97.535-21.773-17.63-16.787-8.974-29.305-30.668-54.39-24.027-27.785-39.67-18.445-63.818-43.452-30.532-31.619-15.261-56.22-41.561-78.92-31.906-27.54-66.314-2.05-96.686-28.462-13.1-11.392-20.287-27.953-24.04-45.566H19.464c-5.207 0-9.436 4.533-9.436 10.126V698.88c0 5.593 4.23 9.804 9.437 9.407l506.629-38.627a8.1 8.1 0 006.105-4.01c-37.086-1.451-59.87-14.805-74.435-28.61-28.492-27.007-23.55-53.64-54.274-71.396z" opacity=".48" fill="#fff" style="mix-blend-mode:soft-light"></path><path d="M543.072 668.623L10.028 708.341l232.417 42.092a30.563 30.563 0 008.047.382l552.663-47.044-251.604-34.878a40.041 40.041 0 00-8.48-.27z" class="cls-3"></path><path d="M87.808 709.34l443.774-33.559 137.345 18.886-439.952 35.873-141.167-21.2z" class="cls-3"></path><g opacity=".75"><path d="M126.115 343.543l-50.984.178v-16.499h50.984v16.321zM393.248 342.611l-234.749.819v-16.208h234.749v15.389zM207.71 370.651l-49.211.465v-16.208l49.211-.293v16.036zM465.856 368.21l-226.879 2.145v-15.927l226.879-1.353v15.135zM207.71 398.044l-49.211.759v-16.209l49.211-.587v16.037zM465.856 394.063l-226.879 3.499v-15.928l226.879-2.706v15.135zM126.115 427.181l-50.984 1.09v-16.499l50.984-.912v16.321zM393.248 421.469l-234.749 5.02v-16.208l234.749-4.2v15.388zM207.71 452.829l-49.211 1.346v-16.208l49.211-1.174v16.036zM465.856 445.77l-226.879 6.204v-15.927l226.879-5.412v15.135zM207.71 480.222l-49.211 1.639v-16.208l49.211-1.468v16.037zM465.856 471.623l-226.879 7.557v-15.927l226.879-6.765v15.135zM207.71 507.614l-49.211 1.933v-16.208l49.211-1.761v16.036zM465.856 497.476l-226.879 8.91v-15.927l226.879-8.118v15.135zM287.242 531.409l-47.512 2.149v-15.924l47.512-1.984v15.759zM500.501 521.762l-183.062 8.281V514.39l183.062-7.643v15.015zM126.115 566.577l-50.984 2.611v-16.5l50.984-2.432v16.321zM393.248 552.899l-234.749 12.02v-16.208l234.749-11.2v15.388zM207.71 589.792l-49.211 2.813v-16.208l49.211-2.641v16.036zM465.856 575.035l-226.879 12.97v-15.928L465.856 559.9v15.135zM207.71 617.185l-49.211 3.106v-16.208l49.211-2.935v16.037zM465.856 600.888l-226.879 14.323v-15.927l226.879-13.531v15.135zM126.115 650.215l-50.984 3.522v-16.499l50.984-3.344v16.321zM393.248 631.758l-234.749 16.219v-16.208l234.749-15.4v15.389z" class="cls-5"></path></g><path d="M571.248 104.49L137.296 90.23a25.448 25.448 0 00-26.398 25.642v422.95a25.153 25.153 0 0026.398 25.382l433.952-18.53c12.552-.536 22.687-11.927 22.687-25.444V129.713c0-13.518-10.136-24.81-22.687-25.222z" class="cls-8"></path><path d="M137.297 555.775a17.122 17.122 0 01-17.946-17.279V116.115a17.323 17.323 0 0117.945-17.455l433.952 13.677c8.55.27 15.462 7.956 15.462 17.169v391c0 9.214-6.912 16.968-15.462 17.322z" class="cls-8"></path><path d="M571.248 104.49L137.296 90.23a25.449 25.449 0 00-26.398 25.642v19.016l483.037 12.383v-17.558c0-13.518-10.135-24.81-22.687-25.222z" class="cls-9"></path><path d="M157.834 114.668a8.303 8.303 0 01-8.559 8.375 8.905 8.905 0 01-8.582-8.873 8.302 8.302 0 018.582-8.374 8.906 8.906 0 018.56 8.872zM187.71 115.536a8.244 8.244 0 01-8.477 8.336 8.841 8.841 0 01-8.5-8.83 8.243 8.243 0 018.5-8.334 8.843 8.843 0 018.477 8.828zM217.302 116.396a8.186 8.186 0 01-8.396 8.297 8.779 8.779 0 01-8.42-8.785 8.184 8.184 0 018.42-8.297 8.78 8.78 0 018.396 8.785zM370.879 187.809l-229.21-4.12v13.477l229.21 3.627v-12.984zM543.205 190.906v12.614l24.25.384v-12.562l-24.25-.436z" class="cls-5"></path><g class="cls-10"><path d="M190.127 230.132l-48.458-.516v-13.897l48.458.623v13.79zM449.003 232.888l-227.94-2.427V216.74l227.94 2.932v13.216zM268.306 254.224l-47.243-.324v-13.722l47.243.429v13.617zM520.847 255.956l-222.377-1.525v-13.55l222.377 2.018v13.057zM268.306 277.483l-47.243-.145v-13.721l47.243.25v13.616zM520.847 278.259l-222.377-.683v-13.55l222.377 1.177v13.056zM190.127 300.798l-48.458.035v-13.897l48.458.072v13.79zM449.003 300.614l-227.94.162v-13.721l227.94.343v13.216zM268.306 324.002l-47.243.213v-13.722l47.243-.108v13.617zM520.847 322.865l-222.377 1.001v-13.549l222.377-.508v13.056zM268.306 347.261l-47.243.392v-13.721l47.243-.287v13.616zM520.847 345.168l-222.377 1.843v-13.549l222.377-1.35v13.056zM268.306 370.521l-47.243.57V357.37l47.243-.466v13.617zM520.847 367.471l-222.377 2.686v-13.55l222.377-2.192v13.056zM345.259 392.56l-46.061.73v-13.548l46.061-.628v13.446zM555.355 389.227l-180.68 2.866v-13.381l180.68-2.465v12.98zM190.127 418.576l-48.458.952v-13.897l48.458-.845v13.79zM449.003 413.489l-227.94 4.479v-13.721l227.94-3.974v13.216zM268.306 440.299l-47.243 1.107v-13.721l47.243-1.003v13.617zM520.847 434.38l-222.377 5.212v-13.55l222.377-4.718v13.056zM268.306 463.559l-47.243 1.286v-13.722l47.243-1.181v13.617zM520.847 456.683l-222.377 6.054v-13.549l222.377-5.561v13.056zM190.127 489.242l-48.458 1.503v-13.897l48.458-1.396v13.79zM449.003 481.214l-227.94 7.069v-13.721l227.94-6.564v13.216zM268.306 510.077l-47.243 1.644V498l47.243-1.539v13.616zM520.847 501.289l-222.377 7.739v-13.55l222.377-7.245v13.056z" class="cls-5"></path></g><path d="M402.568 267.085c-50.685-73.752-138.414-50.286-193.912-131.774a178.37 178.37 0 01-21.458-43.44l-49.902-1.64a25.449 25.449 0 00-26.398 25.641v422.95a25.153 25.153 0 0026.398 25.382l418.059-17.851c-9.577-13.812-92.99-64.974-114.539-143.525-19.705-71.836-7.668-91.246-38.248-135.743z" opacity=".5" class="cls-5"></path><path d="M597.676 759.519s-25.308 11.576-25.718 13.415 16.292-.655 23.113-.407 12.427-1.78 11.803-4.668-3.03-10.148-3.03-10.148z" class="cls-9"></path><path d="M596.726 750.176l1.569 11.403s4.014 1.418 6.705-.276l1.12-12.514z" class="cls-12"></path><path d="M716.042 750.163l2.959 4.724a5.644 5.644 0 01.685 4.422c-1.021 3.937-3.06 11.608-3.954 13.61-1.215 2.726-17.607 4.383-17.607 4.383s-1.467-2.054 1.932-4.547 5.585-2.89 6.777-6.56 1.97-14.044 1.97-14.044z" class="cls-9"></path><path d="M703.747 738.17c1.079.856 6.383 16.826 6.383 16.826s1.71 2.176 4.94-1.049 1.462-1.446 1.462-1.446l-.645-15.719z" class="cls-12"></path><path d="M582.236 521.034a1244.645 1244.645 0 0013.344 233.298 109.087 109.087 0 0011.004-.23 283.047 283.047 0 009.316-30.045 288.885 288.885 0 006.47-35.17c4.786-38.553-.94-41.901 2.951-70.473 3.446-25.305 8.43-26.304 14.199-62.233 6.258-38.984 1.515-44.82-.79-46.926-9.81-8.967-32.79-2.79-56.494 11.779z" class="cls-3"></path><path d="M638.73 509.256c-9.357-8.554-30.697-3.31-53.217 9.832 26.011 27.968 28.883 46.144 25.801 57.95-3.483 13.343-14.16 17.209-14.084 31.79.093 17.918 16.276 22.626 15.977 41.587-.197 12.539-7.303 12.425-8.944 27.915-1.942 18.328 7.357 24.62 4.383 38.183-1.28 5.835-4.954 13.465-15.45 21.34.771 5.566 1.562 11.075 2.385 16.48 2.075.06 4.256.067 6.534-.003q2.307-.07 4.468-.228a282.895 282.895 0 009.317-30.045 288.89 288.89 0 006.47-35.17c4.786-38.552-.94-41.901 2.951-70.473 3.446-25.304 8.43-26.305 14.199-62.233 6.257-38.985 1.515-44.82-.79-46.925z" opacity=".3" style="mix-blend-mode:multiply"></path><path d="M598.305 520.423a764.887 764.887 0 0168.274 121.894 764.33 764.33 0 0137.01 102.047 13.654 13.654 0 007.48 1.14 13.914 13.914 0 008.46-4.596 220.059 220.059 0 001.813-54.262 187.001 187.001 0 00-7.728-40.763c-6.215-19.877-10.458-20.985-18.554-42.011-8.403-21.824-6.394-27.28-14.457-54.597a360.742 360.742 0 00-17.974-47.888l-64.324 19.036z" fill="url(#Dégradé_sans_nom_194)"></path><path d="M507.242 474.38c.212 7.94 13.262 14.934 23.77 17.08 24.57 5.014 53.055-12.838 66.575-32.586 2.655-3.878 5.604-8.58 6.315-8.216 1.608.823-13.163 25.092-19.567 52.693-3.276 14.12-2.418 20.734-8.543 30.134-1.388 2.13-3.098 4.347-2.497 6.866 1.505 6.31 15.934 7.948 25.943 9.085 10.568 1.2 20.422 1.083 30.164.941 15.595-.228 16.824-1.038 20.383.71 10.848 5.324 10.113 18.079 18.275 19.78 6.855 1.429 13.81-6.226 16.014-8.653 11.46-12.616 10.848-27.826 12.88-43.167 4.725-35.667 24.103-74.744 43.058-99.481 5.75-7.503 9.747-11.45 9.997-18.421.733-20.468-31.693-43.062-58.69-45.658-7.4-.712-20.65-.488-33.073.683a202.133 202.133 0 00-15.932 2.15c-13.777 2.41-23.37 4.088-33.144 8.56-39.417 18.035-30.815 58.18-73.477 85.938-14.669 9.543-28.674 13.247-28.451 21.562z" class="cls-15"></path><path d="M541.706 473.16c17.814-4.012 24.912-3.883 33.721-10.98 14.667-11.817 16.87-29.803 25.393-29.584 4.027.104 7.3 4.218 9.628 8.245l-6.437 10.082c-.009-.128-.037-.227-.109-.264-.71-.364-3.66 4.338-6.315 8.216-13.52 19.748-42.005 37.6-66.574 32.585-7.045-1.438-15.215-5.06-19.91-9.681a304.126 304.126 0 0130.603-8.619z" class="cls-16"></path><path d="M512.693 493.018s-10.052-1-16.041-3.563-9.86 1.117-9.309 3.665 10.404 6.093 14.341 6.22 11.009-6.322 11.009-6.322z" class="cls-12"></path><path d="M729.18 541.645c10.792.963 35.085 1.402 52.267-14.493 28.604-26.462 14.414-76.831 4.457-98.494-11.415-24.836-29.584-38.738-40.626-47.187-13.698-10.482-22.06-16.88-32.119-15.447-26.015 3.705-44.032 57.025-29.75 72.29 4.675 4.998 9.304 2.168 22.835 6.477 4.407 1.404 37.294 11.878 43.02 36.1 4.008 16.954-6.195 36.805-24.356 50.138l4.272 10.616z" class="cls-15"></path><path d="M608.213 532.862c12.218-7.721 14.026-15.546 27.707-20.834 17.774-6.87 26.315 1.856 35.127-5.189 10.487-8.384 1.204-22.991 9.051-48.34 1.332-4.302 11.45-36.98 34.663-41.144 10.825-1.941 25.122 2.206 30.631 11.379 4.312 7.179.295 12.53 5.537 20.456 5.239 7.92 11.504 5.983 18.182 12.589 10.604 10.489 12.23 32.607 2.656 45.116-4.465 5.834-10.268 8.142-21.186 12.483a102.833 102.833 0 01-18.207 5.348c13.369-12.831 20.307-29.38 16.89-43.834-3.57-15.1-17.692-24.855-28.892-30.403-11.207 21.092-20.367 45.533-23.418 68.557-2.032 15.342-1.42 30.552-12.88 43.167-2.204 2.427-9.158 10.082-16.013 8.654-8.163-1.701-7.428-14.457-18.275-19.78-3.56-1.748-4.788-.938-20.383-.71-9.742.142-19.596.258-30.164-.942-8.901-1.01-21.276-2.427-24.97-7.164 16.07-.437 26.795-4.891 33.944-9.409z" class="cls-16"></path><path d="M722.094 550.127l1.257-3.698a10.962 10.962 0 00-7.357-14.034L478.17 459.95l-7.246 24.562 236.622 72.882a11.74 11.74 0 0014.548-7.267z"></path><path d="M478.17 459.95l30.324 9.237c2.08 9.671 6.126 15.212 10.197 18.587 15.317 12.697 35.77-1.15 64.304 13.738 14.318 7.47 11.598 12.225 25.019 17.438 22.188 8.618 32.345-3.32 51.982 4.524 19.862 7.935 21.82 25.081 33.085 24.466 4.819-.263 11.022-3.769 17.94-17.06l4.973 1.515a10.962 10.962 0 017.357 14.034l-1.257 3.698a11.74 11.74 0 01-14.548 7.267l-236.622-72.882z" class="cls-17"></path><path d="M237.235 399.565c18.183-71.837 89.438-115.129 159.906-94.84 71.761 20.663 112.846 98.416 91.043 171.71-21.292 71.573-94.307 110.185-162.44 88.102-66.955-21.7-106.279-94.77-88.509-164.972zm230.249 70.53c18.02-61.34-16.362-126.307-76.287-143.74-59.02-17.17-118.981 18.87-134.454 79.185-15.176 59.16 17.963 120.823 74.5 138.988 57.373 18.434 118.576-14.304 136.241-74.434z" class="cls-17"></path><path d="M244.123 401.675c17.233-67.762 84.5-108.475 150.911-89.283 67.56 19.524 106.269 92.74 85.817 161.797-20 67.527-88.832 104.074-153.166 83.287-63.284-20.448-100.425-89.496-83.562-155.801zm223.361 68.42c18.02-61.34-16.362-126.307-76.287-143.74-59.02-17.17-118.982 18.87-134.455 79.185-15.175 59.16 17.964 120.823 74.5 138.988 57.374 18.434 118.577-14.304 136.242-74.434z" fill="url(#Dégradé_sans_nom_168)"></path><path d="M728.263 539.368l-2.403-5.973a12.299 12.299 0 01-7.144-2.07 9.292 9.292 0 00-5.773-1.382c-.904.251-4.322.102-.426 1.96s3.864 3.239 2.24 4.764-7.801 4.806-10.025 4.964 1.797 3.598 4.04 4.037a13.842 13.842 0 0010.47-1.684c1.66-.977 9.021-4.616 9.021-4.616z" class="cls-12"></path><path d="M627.106 280.472a28.9 28.9 0 01-15.728-4.067c-14.355-8.605-35.566-22.816-54.649-41.418-24.214-23.605-38.127-47.6-41.17-71.161l-.048-.37-.591-100.537c0-19.869 12.96-35.998 37.29-46.596 20.104-8.755 46.748-13.094 74.896-12.28 27.82.806 53.563 6.546 72.617 16.11 22.65 11.37 34.534 27.349 34.534 46.293l-.539 96.064-.044.353c-2.781 22.562-15.582 45.884-38.206 69.469-18.148 18.915-38.654 33.906-52.737 43.194a29.932 29.932 0 01-15.625 4.946z" fill="url(#Dégradé_sans_nom_164)"></path><path d="M632.627 280.472a28.228 28.228 0 01-15.52-4.067c-14.166-8.605-35.096-22.816-53.927-41.418-23.894-23.605-37.623-47.6-40.627-71.161l-.047-.37-.583-100.537c0-19.869 12.789-35.998 36.798-46.596 19.837-8.755 46.13-13.094 73.906-12.28 27.452.806 52.855 6.546 71.657 16.11 22.351 11.37 34.078 27.349 34.078 46.293l-.532 96.064-.043.353c-2.745 22.563-15.376 45.885-37.702 69.469-17.907 18.916-38.143 33.906-52.04 43.194a29.267 29.267 0 01-15.418 4.946z" class="cls-3"></path><path d="M528.561 62.992l.587 100.029c6.585 51.037 66.565 92.359 92.689 108.058a23.063 23.063 0 0024.482-.659c25.578-16.83 82.274-59.203 88.331-108.274l.538-95.799c0-71.075-206.627-77.572-206.627-3.355z" class="cls-5"></path><path d="M634.109 255.66a3.57 3.57 0 01-1.936-.512c-10.756-6.513-31.607-20.157-49.746-37.974-19.593-19.246-30.893-37.958-33.485-55.533l-.575-98.373c.024-9.439 7.496-17.517 22.142-23.98 16.35-7.217 39.57-11.003 63.6-10.432 23.791.565 46.333 5.354 61.95 13.103 13.813 6.855 20.797 14.935 20.82 24.048l-.536 94.967c-2.419 17.006-13.025 35.34-31.646 54.612-17.51 18.121-37.963 32.486-48.653 39.472a3.699 3.699 0 01-1.935.603z" class="cls-17"></path><path d="M631.655 248.937c-10.863-6.69-30.179-19.61-47.032-36.195-18.413-18.121-29.069-35.51-31.574-51.6l-.57-97.802c.017-6.75 6.22-12.94 18.391-18.328 15.489-6.858 37.68-10.472 60.784-9.953 22.884.513 44.453 5.033 59.275 12.367 11.517 5.698 17.343 11.914 17.36 18.496l-.535 94.617c-2.35 15.612-12.401 32.685-29.977 50.841-16.318 16.858-35.31 30.413-46.122 37.557z" fill="#f9b333"></path><g class="cls-10"><path d="M670.527 120.885l-73.15.65a10.082 10.082 0 00-10.21 9.79v46.87c0 5.32 4.57 9.45 10.17 9.22l72.89-2.99a9.82 9.82 0 009.42-9.59l.23-44.77a9.18 9.18 0 00-9.35-9.18zm-31.19 34.82a3.472 3.472 0 00-1.74 3.55l2.04 11.72a2.573 2.573 0 01-2.49 2.94l-5.35.19a2.391 2.391 0 01-2.51-2.78l2.12-11.84a3.263 3.263 0 00-1.64-3.48 8.825 8.825 0 01-4.72-8.33 9.684 9.684 0 019.06-8.84 9.06 9.06 0 019.85 8.93 9.347 9.347 0 01-4.62 7.94zM669.495 116.24a3.903 3.903 0 01-3.964-3.9l.045-10.209a18.968 18.968 0 00-18.997-18.793l-23.876-.237c-10.933-.109-19.923 8.417-19.932 18.995l-.01 10.532a4.19 4.19 0 01-4.257 4.076 4.139 4.139 0 01-4.27-4.038l.004-10.575c.006-15.118 12.88-27.257 28.48-27.04l23.887.332c15.006.209 26.992 12.219 26.922 26.753l-.049 10.169a3.99 3.99 0 01-3.983 3.934z" class="cls-5"></path></g><path d="M667.178 335.675a23.19 23.19 0 015.932 10.926c2.415 9.454 13.043 8.847 15.91 10.02s-4.73 5.875-12.622 7.309-30.755 1.437-35.09-1.253 3.068-3.051 8.58-5.588 7.911-13.904 6.508-18.865 10.782-2.55 10.782-2.55z" class="cls-12"></path><path d="M655.202 326.14c-7.34-6.145-8.351-6.85-9.277-9.103-3.714-9.04 2.47-22.32 11.66-26.2.478-.202 6.646-2.733 9.281-.179 2.238 2.169-.524 5.63 1.27 10.01 1.68 4.101 5.352 4.126 12.552 9.105 5.932 4.1 9.618 6.65 10.733 10.561 2.299 8.062-6.673 20.726-15.479 21.103-3.167.135-4.154-1.409-20.74-15.296z"></path><path d="M675.183 342.771s-6.582 8.77-17.82 6.939c-10.062-1.639-9.348-24.489-2.415-28.683 2.313-1.398 6.7-1.647 10.118-.323 2.02.782 2.637 1.713 5.962 2.927 3.066 1.12 3.989.857 4.86 1.748 1.09 1.114 1.723 3.648-.902 10.095 2.121-1.77 4.513-2.295 6.08-1.361a3.471 3.471 0 011.222 1.444c1.165 2.731-1.524 5.814-7.105 7.214z" class="cls-12"></path></g></g></svg>