<svg width="840.199" height="839.382" viewBox="0 0 840 840" xmlns="http://www.w3.org/2000/svg" xmlns:xlink="http://www.w3.org/1999/xlink" class="stepIcon_3u5pW stepIcon--1_28dyA"><defs><linearGradient id="Dégradé_sans_nom_180" x1="187.972" y1="655.545" x2="340.772" y2="655.545" gradientUnits="userSpaceOnUse"><stop offset="0"></stop><stop offset="1" stop-color="#2a3056"></stop></linearGradient><linearGradient id="Dégradé_sans_nom_180-2" x1="137.931" y1="660.673" x2="374.324" y2="660.673" xlink:href="#Dégradé_sans_nom_180"></linearGradient><linearGradient id="Dégradé_sans_nom_174" x1="38.464" y1="482.769" x2="182.477" y2="482.769" gradientUnits="userSpaceOnUse"><stop offset="0" stop-color="#2a3056"></stop><stop offset="1"></stop></linearGradient><style>.cls-3{fill:#b3b3b2}.cls-4{fill:#fff}.cls-9{fill:#232c59}.cls-11{fill:#e6ae8b}</style></defs><g style="isolation:isolate"><g id="Calque_1" data-name="Calque 1"><path d="M774.993 101.27c-82.28-96.68-214.54-96.89-276.55-96.99-26.92-.04-272.45 3.71-406.62 206.28-71.409 107.83-119.33 284.16-49.33 380.23 20.671 28.37 31.51 22.13 142.02 89.28 151.68 92.18 150.97 115.92 213.77 137.01 81.74 27.45 202.53 27.4 293-40.03 102.66-76.5 117.841-203.63 133.04-330.96 14.93-124.959 30.051-251.57-49.33-344.82z" fill="#eae6df" opacity=".4"></path><path d="M815.939 558.68l-474.84-66.037a23.877 23.877 0 01-20.857-23.685l-6.513-331.204s10.823-7.804 16.958-10.795a18.437 18.437 0 0110.457-1.711l473.426 60.376a23.877 23.877 0 0120.856 23.684v325.306a18.485 18.485 0 01-6.774 14.335c-3.789 3.115-12.713 9.73-12.713 9.73z" class="cls-3"></path><path d="M801.447 563.079L328.02 502.703a23.877 23.877 0 01-20.856-23.685V153.713a18.554 18.554 0 0120.9-18.405l473.428 60.376a23.877 23.877 0 0120.856 23.684v325.306a18.554 18.554 0 01-20.9 18.405z" class="cls-4"></path><path d="M791.386 549.67l-452.052-57.65a17.363 17.363 0 01-15.167-17.224V161.01a12.392 12.392 0 0113.96-12.292l452.051 57.65a17.363 17.363 0 0115.167 17.223v313.788a12.392 12.392 0 01-13.96 12.292z" fill="#dce7ee"></path><path d="M525.25 754.662l-486.9-62.793A6.711 6.711 0 0132.439 685c.034-2.201.212-17.7.212-17.7L290.1 520.123c12.9-7.367 29.588-10.213 44.322-8.326l480.752 62.017a8.238 8.238 0 016.522 4.934l.773 1.81s-.413 12.925-.245 15.945a6.608 6.608 0 01-3.405 6.21L567.832 746.218a68.352 68.352 0 01-42.581 8.445z" class="cls-3"></path><path d="M98.235 682.251L40.09 674.74a6.766 6.766 0 01-2.496-12.586l249.64-142.58a68.353 68.353 0 0142.581-8.445l485.16 62.673a6.766 6.766 0 012.496 12.586l-249.64 142.58a68.351 68.351 0 01-42.581 8.445L98.235 682.251z" fill="#cccbcb"></path><path d="M620.24 658.27l-420.697-54.743a6.11 6.11 0 01-2.255-11.368l98.919-55.925a61.735 61.735 0 0138.46-7.627l420.696 54.742a6.11 6.11 0 012.254 11.368l-98.918 55.926a61.735 61.735 0 01-38.46 7.627z" opacity=".3" fill="#b3b3b2" style="mix-blend-mode:multiply"></path><path d="M753.756 534.259L379.871 486.97c-6.436-.815-11.653-6.983-11.653-13.777V16.968c0-6.795 5.217-11.643 11.653-10.83l373.885 47.29c6.436.813 11.654 6.981 11.654 13.776V523.43c0 6.795-5.217 11.643-11.654 10.829z" fill="#b9ded2"></path><path d="M695.486 281.86L439.11 249.433a5.837 5.837 0 01-4.855-5.74v-24.606a4.307 4.307 0 014.855-4.511l256.376 32.426a5.837 5.837 0 014.856 5.74v24.606a4.307 4.307 0 01-4.856 4.512zM697.424 351.815l-258.312-32.671a4.673 4.673 0 01-3.888-4.595v-26.65a3.448 3.448 0 013.888-3.612l258.312 32.67a4.673 4.673 0 013.887 4.596v26.65a3.448 3.448 0 01-3.887 3.612z" class="cls-4"></path><path d="M657.131 419.512L477.468 396.79a6.417 6.417 0 01-5.338-6.31v-23.587a4.736 4.736 0 015.338-4.96l179.663 22.723a6.417 6.417 0 015.339 6.31v23.588a4.735 4.735 0 01-5.339 4.96z" class="cls-9"></path><ellipse cx="568.494" cy="139.826" rx="53.652" ry="60.559" transform="rotate(-40.36 568.494 139.825)" fill="#faba61"></ellipse><ellipse cx="567.531" cy="131.848" rx="18.727" ry="21.138" transform="rotate(-40.359 567.53 131.848)" class="cls-4"></ellipse><path d="M527.022 173.861c6.765-6.72 14.977-13.303 23.728-17.237a8.526 8.526 0 016.935.102c8.905 3.911 15.833 3.466 23.526 1.515a7.414 7.414 0 015.725.976 77.118 77.118 0 0124.276 23.46c-25 25.129-65.046 16.213-84.19-8.816z" class="cls-4"></path><path d="M568.493 199.614c-32.564-3.95-59.057-33.985-59.057-66.952s26.493-56.575 59.057-52.625 59.057 33.984 59.057 66.951-26.492 56.576-59.057 52.626zm0-114.706c-29.91-3.627-54.245 18.058-54.245 48.338s24.334 57.868 54.245 61.496 54.245-18.057 54.245-48.337-24.334-57.869-54.245-61.497z" class="cls-9"></path><path d="M360.308 757.882c.183-5.44 11.31-11.402 17.732-8.626 1.311.568 2.382 1.613 4.525 3.704a52.027 52.027 0 017.103 8.55c7.44 11.39 24.594 22.125 22.59 26.058-1.443 2.832-12.381 1.281-20.78-2.968-6.753-3.417-6.692-5.962-17.811-14.843-9.835-7.855-13.465-8.726-13.359-11.875z"></path><path d="M358.261 741.245l8.146 13.402a7.404 7.404 0 008.209 3.316 4.809 4.809 0 002.862-7.19L365.48 731.47z" class="cls-11"></path><path d="M93.146 420.154c-13.855 5.142-25.619 15.966-33.623 30.214C39.1 486.723-14.203 593.282 11.01 675.564c30.882 100.787 291.967 98.092 360.01 55.198 17.287-10.898 88.02-84.415-2.765-145.524-83.213-56.013-117.604-14.896-155.975-36.964s-66.084-110.631-80.24-123.217c-9.143-8.128-23.366-10.664-38.893-4.903z" fill="#93ccde"></path><path d="M281.76 744.265c4.671-2.792 15.71 3.332 16.854 10.234.233 1.41-.065 2.876-.663 5.81a52.034 52.034 0 01-3.34 10.602c-5.545 12.424-5.28 32.658-9.67 33.104-3.163.32-7.784-9.715-8.76-19.077-.785-7.527 1.387-8.854 2.83-23.011 1.278-12.522.044-16.045 2.748-17.662z"></path><path d="M294.636 733.534l-6.854 14.106a7.404 7.404 0 001.659 8.696 4.81 4.81 0 007.594-1.488l9.728-20.54z" class="cls-11"></path><path d="M218.017 568.212s54.174-6.442 102.984 21.172a39.011 39.011 0 0119.77 34.185c-.154 28.06-14.73 72.395-31.923 116.921a4.759 4.759 0 01-6.365 2.632l-10.36-2.766a4.744 4.744 0 01-2.77-3.602c-1.616-10.286-7.075-49.405-1.605-77.782 6.348-32.936-99.775-67.844-99.775-67.844z" fill="url(#Dégradé_sans_nom_180)"></path><path d="M372.885 741.926l-9.743 6.142a3.184 3.184 0 01-4.102-.514c-12.046-13.208-80.06-87.381-97.113-97.094-18.73-10.669-53.726-26.726-85.509-26.535s-38.487-21.886-38.487-21.886l45.322-29.284s78.426 8.88 111.569 35.835c29.925 24.34 69.704 113.313 79.056 129.053a3.18 3.18 0 01-.993 4.283z" fill="url(#Dégradé_sans_nom_180-2)"></path><path d="M182.536 501.388l5.805 11.946a87.568 87.568 0 0030.75 34.961l5.357 3.512a18.549 18.549 0 0011.611 2.981l.626-.049a25.596 25.596 0 0117.466 5.133l-14.05 4.515a34.2 34.2 0 01-25.922-1.963 72.906 72.906 0 01-24.93-20.508c-16.423-21.396-20.22-34.57-20.22-34.57z" class="cls-4"></path><path d="M255.634 560.12a1.507 1.507 0 01-1.02 1.18l-14.05 4.51a36.253 36.253 0 01-11.13 1.76 35.148 35.148 0 01-15.93-3.81 73.553 73.553 0 01-25.44-20.93c-16.41-21.38-20.32-34.519-20.48-35.07a1.498 1.498 0 01.84-1.79l13.51-5.95a1.492 1.492 0 011.95.71l5.81 11.95a86.107 86.107 0 0030.221 34.36l5.36 3.51a17.137 17.137 0 0010.67 2.74l.62-.05a27.037 27.037 0 0118.5 5.44 1.51 1.51 0 01.569 1.44z" class="cls-11"></path><path d="M164.648 615.953s-17.814 13.6-27.608 9.687 7.063-20.665 12.03-21.314 15.578 11.627 15.578 11.627z"></path><path d="M166.172 421.715c8.014-1.112 17.15 5.904 16.242 17.866-.741 9.772-10.936 12.726-15.654 17.943-15.26 16.878-.614 35.196-12.543 52.029-11.364 16.035-28.612 4.999-51.696 23.413-18.174 14.498 47.885-7.53 24.76 7.765-18.45 12.202-53.063 11.182-72.624-11.245-18.6-21.324-22.878-53.336-3.82-68.783 17.13-13.886 29.225 2.314 47.492-10.715 18.01-12.845 13.058-25.296 24.306-30.662 15.382-7.338 20.822 5.54 43.537 2.389z" fill="url(#Dégradé_sans_nom_174)"></path><path d="M72.955 534.801a140.984 140.984 0 014.025-17.732c4.665-14.334 7.847-23.66 23.837-32.183a48.567 48.567 0 017.48-3.172l9.663-3.225s39.883-11.405 55.857 4.01a25.362 25.362 0 013.98 4.31l10.408 15.692-.095.04a16.577 16.577 0 00-8.172 23.519c5.688 9.981 13.528 21.64 21.329 26.487 2.464 1.531 22.318 9.69 22.318 9.69s4.875 14.857-25.68 27.593-52.818 17.354-59.229 33.083c-3.795 9.313-19.245-35.33-29.194-77.16A16.6 16.6 0 0091.8 533.051z" class="cls-4"></path><path d="M137.372 625.659c-.07 0-.136-.003-.197-.008-1.445-.111-4.83-.372-13.818-26.164-5.278-15.144-10.867-34.603-15.333-53.387a15.187 15.187 0 00-16.085-11.555l-18.845 1.75a1.5 1.5 0 01-1.617-1.745 140.74 140.74 0 014.076-17.945c4.561-14.016 7.857-24.142 24.558-33.043a49.669 49.669 0 017.71-3.27l9.663-3.225c1.725-.495 40.967-11.48 57.375 4.354.216.209.443.423.675.643a21.524 21.524 0 013.529 3.941l10.392 15.668a1.5 1.5 0 01-.683 2.218l-.096.039a15.078 15.078 0 00-7.436 21.387c7.515 13.188 14.713 22.162 20.818 25.956 1.73 1.075 14.163 6.316 22.097 9.577a1.5 1.5 0 01.855.92c.216.66 4.946 16.326-26.528 29.445-6.885 2.87-13.476 5.377-19.293 7.59-19.97 7.595-34.4 13.082-39.124 24.675-.752 1.848-1.94 2.179-2.693 2.179zm-.31-2.898zm-43.744-91.28a18.203 18.203 0 0117.624 13.926c9.596 40.345 21.991 74.506 26.258 77.137a2.99 2.99 0 00.089-.196c5.216-12.8 20.156-18.483 40.835-26.347 5.795-2.204 12.363-4.703 19.205-7.555 25.185-10.498 25.317-22.304 24.946-25.126-3.981-1.64-19.493-8.065-21.8-9.498-6.621-4.115-13.97-13.205-21.84-27.02a18.074 18.074 0 017.355-24.928l-9.444-14.237a19.269 19.269 0 00-3.07-3.392c-.24-.228-.477-.45-.7-.666-15.177-14.646-54.013-3.761-54.404-3.648l-9.6 3.206a46.683 46.683 0 00-7.25 3.072c-15.633 8.333-18.61 17.48-23.115 31.324a129.781 129.781 0 00-3.636 15.593l16.89-1.568a17.895 17.895 0 011.656-.077z" class="cls-4"></path><path d="M194.924 574.171a3.402 3.402 0 01-2.42 3.3 30.582 30.582 0 01-6.72.9c-4.01.26-8.16.53-9.94 2.9-5.57 7.46-12.62 8.73-12.91 8.78a216.078 216.078 0 01-24.88 1.56c-19.1 0-33.23-3.31-40.87-9.74-13.07-11-19.755-44.484-20.014-45.955-.07-.42 17.152-2.193 17.152-2.193 7.66-.71 13.992 1.928 15.932 9.368 3.81 14.61 5.69 18.77 6.46 19.95 3.11 4.72 35.35 12.69 43.35 12.77a5.072 5.072 0 003.48-1.33l6.43-5.95a8.12 8.12 0 017.67-1.83l14.8 4.22a3.408 3.408 0 012.48 3.25zM152.697 451.222c-.787 2.294-.532 5.036-.177 7.415a2.544 2.544 0 01-2.133 2.89l-1.235.192a13.376 13.376 0 01-3.476 4.859 3.46 3.46 0 01-2.449.88 11.34 11.34 0 01-2.394-.393l-.72 6.048 3.291-.077a1.196 1.196 0 011.136.818c.077.27 1.854 6.543-7.716 10.907a23.374 23.374 0 01-9.501 1.7 50.51 50.51 0 01-8.01-.703 4.012 4.012 0 01-1.383-7.43l4.156-2.418c2.371-7.647 5.739-18.91 6.372-21.992a5.872 5.872 0 01-1.838-4.781c.077-2.086.78-3.538 2.086-4.31 2.131-1.267 4.951-.101 5.646.224l.464.115a17.116 17.116 0 009.67-.486l6.976-2.434a1.162 1.162 0 011.383.526c.069.123 1.699 3.074-.148 8.45z" class="cls-11"></path><path d="M263.408 558.338l-68.332 20.779 22.816-77.544a9.098 9.098 0 016.117-6.135l55.456-16.863a4.54 4.54 0 015.807 5.517z" class="cls-3"></path><path d="M247.117 527.766a10.306 10.306 0 01-5.997 6.436c-2.505.762-3.881-.885-3.074-3.678a10.306 10.306 0 015.997-6.437c2.505-.762 3.881.885 3.074 3.679z" class="cls-4"></path><path d="M261.02 563.568l-107.193 32.596a4.19 4.19 0 01-5.229-2.794l-.319-.572 115.212-35.035.32.573a4.194 4.194 0 01-2.791 5.232z" class="cls-3"></path><path d="M332.411 178.008l81.816 23.778 58.052-64.589-139.868 40.811z" class="cls-4"></path><path d="M373.181 216.393l-11.423-29.856 76.057-31.077-61.677 35.257 17.103 4.97-20.06 20.706zM154.33 327.359c-3.5 0-7.03-.111-10.489-.332a1.5 1.5 0 01-1.401-1.593 1.462 1.462 0 011.592-1.401c3.918.25 7.92.356 11.883.318h.014a1.5 1.5 0 01.013 3q-.806.007-1.613.008zm13.576-.545a1.5 1.5 0 01-.117-2.995c3.898-.31 7.874-.76 11.819-1.34a1.5 1.5 0 01.435 2.969c-4.01.588-8.053 1.046-12.016 1.361a1.6 1.6 0 01-.12.005zm-35.904-.996a1.522 1.522 0 01-.21-.015 158.18 158.18 0 01-11.923-2.14 1.5 1.5 0 11.645-2.93c3.843.844 7.778 1.55 11.694 2.1a1.5 1.5 0 01-.206 2.985zm59.632-2.466a1.5 1.5 0 01-.308-2.968c3.825-.805 7.72-1.746 11.581-2.795a1.5 1.5 0 01.787 2.895 210.66 210.66 0 01-11.749 2.836 1.547 1.547 0 01-.311.032zm-83.053-2.68a1.495 1.495 0 01-.434-.064 159.448 159.448 0 01-11.455-3.942 1.5 1.5 0 111.083-2.797c3.698 1.431 7.48 2.732 11.239 3.868a1.5 1.5 0 01-.433 2.935zm106.211-3.596a1.5 1.5 0 01-.47-2.924 241.95 241.95 0 0011.23-4.025 1.5 1.5 0 111.08 2.799 245.347 245.347 0 01-11.37 4.074 1.5 1.5 0 01-.47.077zm-128.545-5.12a1.493 1.493 0 01-.708-.178 52.724 52.724 0 01-10.08-7.08 1.5 1.5 0 111.993-2.242 49.646 49.646 0 009.505 6.677 1.5 1.5 0 01-.71 2.822zm150.944-3.517a1.5 1.5 0 01-.606-2.873 279.975 279.975 0 0010.824-5.05 1.5 1.5 0 011.326 2.692 283.921 283.921 0 01-10.94 5.104 1.503 1.503 0 01-.604.127zm21.547-10.599a1.5 1.5 0 01-.717-2.818c3.45-1.874 6.948-3.86 10.396-5.903a1.5 1.5 0 011.53 2.582 325.186 325.186 0 01-10.495 5.957 1.499 1.499 0 01-.714.182zm-190.375-1.594a1.497 1.497 0 01-1.2-.597 74.376 74.376 0 01-6.508-10.359 1.5 1.5 0 012.66-1.387 71.402 71.402 0 006.245 9.94 1.5 1.5 0 01-1.198 2.403zm211.046-10.64a1.5 1.5 0 01-.81-2.762 365.558 365.558 0 009.967-6.623 1.5 1.5 0 011.701 2.47 364.863 364.863 0 01-10.049 6.678 1.49 1.49 0 01-.809.238zM57.226 275.092a1.501 1.501 0 01-1.415-1 96.758 96.758 0 01-3.306-11.727 1.5 1.5 0 012.934-.633 93.303 93.303 0 003.202 11.361 1.5 1.5 0 01-1.415 2zm241.977-3.104a1.5 1.5 0 01-.89-2.708 388.683 388.683 0 009.532-7.245 1.5 1.5 0 011.851 2.361 400.718 400.718 0 01-9.604 7.3 1.497 1.497 0 01-.889.292zm18.911-14.832a1.5 1.5 0 01-.961-2.652 396.188 396.188 0 009.079-7.81 1.5 1.5 0 111.99 2.244 397.518 397.518 0 01-9.148 7.87 1.491 1.491 0 01-.96.348zm-265.966-5.463a1.5 1.5 0 01-1.492-1.36 105.456 105.456 0 01-.435-12.164 1.5 1.5 0 011.499-1.466h.035a1.502 1.502 0 011.466 1.534q-.026 1.137-.025 2.27c0 3.174.15 6.385.447 9.545a1.5 1.5 0 01-1.353 1.634 1.401 1.401 0 01-.142.007zM336.09 241.19a1.5 1.5 0 01-1.032-2.588c3.948-3.745 6.813-6.643 8.522-8.415a1.5 1.5 0 112.16 2.082c-1.73 1.794-4.63 4.727-8.618 8.509a1.494 1.494 0 01-1.032.412zM52.694 227.747a1.551 1.551 0 01-.212-.015 1.5 1.5 0 01-1.276-1.695 98.97 98.97 0 012.438-11.932 1.5 1.5 0 012.896.783 95.69 95.69 0 00-2.363 11.569 1.5 1.5 0 01-1.483 1.29zm6.276-23.095a1.5 1.5 0 01-1.383-2.08 85.845 85.845 0 015.492-10.897 1.5 1.5 0 012.575 1.54 82.802 82.802 0 00-5.3 10.516 1.5 1.5 0 01-1.384.921zm12.307-20.499a1.5 1.5 0 01-1.156-2.456 77.43 77.43 0 018.51-8.773 1.5 1.5 0 111.98 2.252 74.567 74.567 0 00-8.177 8.433 1.5 1.5 0 01-1.157.544zm17.94-15.778a1.5 1.5 0 01-.803-2.768 81.532 81.532 0 0110.786-5.719 1.5 1.5 0 111.205 2.748 78.614 78.614 0 00-10.388 5.506 1.495 1.495 0 01-.8.233zM256.002 467.597a1.517 1.517 0 01-.47-.075 1.5 1.5 0 01-.955-1.895c.014-.04 1.389-4.223 3.457-11.47a1.5 1.5 0 112.885.825c-2.087 7.31-3.479 11.543-3.492 11.585a1.5 1.5 0 01-1.425 1.03zm6.643-23.12a1.5 1.5 0 01-1.452-1.88 613.902 613.902 0 002.92-11.622 1.5 1.5 0 112.916.703 620.697 620.697 0 01-2.934 11.679 1.5 1.5 0 01-1.45 1.12zm5.625-23.353a1.479 1.479 0 01-.324-.036 1.5 1.5 0 01-1.142-1.788c.855-3.876 1.685-7.82 2.468-11.723a1.5 1.5 0 112.941.59 624.176 624.176 0 01-2.48 11.78 1.5 1.5 0 01-1.463 1.177zm4.718-23.551a1.567 1.567 0 01-.267-.023 1.5 1.5 0 01-1.211-1.743 576.95 576.95 0 002-11.81 1.5 1.5 0 112.963.47c-.62 3.907-1.296 7.9-2.01 11.872a1.5 1.5 0 01-1.475 1.234zm3.758-23.72a1.437 1.437 0 01-.204-.014 1.5 1.5 0 01-1.284-1.688c.541-3.972 1.04-7.97 1.482-11.882a1.5 1.5 0 112.98.338 530.055 530.055 0 01-1.49 11.948 1.5 1.5 0 01-1.484 1.298zm2.687-23.864a1.51 1.51 0 01-.133-.006 1.5 1.5 0 01-1.363-1.625c.353-4.027.652-8.041.887-11.935a1.5 1.5 0 012.995.182c-.238 3.92-.538 7.962-.894 12.014a1.5 1.5 0 01-1.492 1.37zm1.445-23.96h-.048a1.5 1.5 0 01-1.452-1.546c.125-3.972.189-7.938.189-11.786v-.17a1.5 1.5 0 113 0v.17c0 3.88-.065 7.878-.19 11.88a1.5 1.5 0 01-1.499 1.453zm-.026-24.004a1.5 1.5 0 01-1.498-1.447 309.737 309.737 0 00-.657-11.927 1.5 1.5 0 012.993-.225c.294 3.93.516 7.982.662 12.045a1.5 1.5 0 01-1.446 1.553l-.054.001zm-1.817-23.936a1.5 1.5 0 01-1.487-1.322 245.581 245.581 0 00-1.697-11.808 1.5 1.5 0 012.957-.5c.657 3.881 1.235 7.903 1.719 11.952a1.5 1.5 0 01-1.312 1.667 1.398 1.398 0 01-.18.011zm-4.033-23.651a1.5 1.5 0 01-1.462-1.168 190.253 190.253 0 00-2.993-11.522 1.5 1.5 0 012.879-.847 194.023 194.023 0 013.04 11.705 1.5 1.5 0 01-1.464 1.832zm-6.8-23a1.5 1.5 0 01-1.406-.975 148.481 148.481 0 00-4.589-10.952 1.5 1.5 0 012.717-1.271c1.672 3.57 3.248 7.33 4.683 11.174a1.5 1.5 0 01-1.406 2.025zm-10.195-21.686a1.5 1.5 0 01-1.297-.745 119.43 119.43 0 00-6.458-9.921 1.5 1.5 0 112.428-1.762 122.693 122.693 0 016.622 10.172 1.5 1.5 0 01-1.295 2.255zm-14.083-19.362a1.496 1.496 0 01-1.112-.494 105.289 105.289 0 00-8.402-8.306 1.5 1.5 0 111.984-2.25 108.391 108.391 0 018.642 8.545 1.5 1.5 0 01-1.112 2.506zm-17.941-15.83a1.499 1.499 0 01-.858-.27 106.301 106.301 0 00-10.05-6.207 1.5 1.5 0 111.433-2.636 109.665 109.665 0 0110.334 6.382 1.5 1.5 0 01-.86 2.73zm-21.005-11.456a1.49 1.49 0 01-.575-.114 123.93 123.93 0 00-11.14-4.003 1.5 1.5 0 01.88-2.867c3.91 1.199 7.75 2.578 11.41 4.098a1.5 1.5 0 01-.576 2.886zm-22.553-7.077a1.493 1.493 0 01-.586-.007 123.942 123.942 0 00-11.685-1.892 1.5 1.5 0 01.339-2.98c4.064.462 8.091 1.113 11.969 1.937a1.5 1.5 0 01-.037 2.942zm-23.203-3.395a1.37 1.37 0 01-.55.07 114.823 114.823 0 00-11.22-.3 1.469 1.469 0 01-1.477-1.426 1.409 1.409 0 011.363-1.487c3.875-.085 7.74.018 11.493.305a1.478 1.478 0 011.34 1.563 1.416 1.416 0 01-.95 1.275zm-19.319-.738a1.377 1.377 0 01-.52.13c-3.535.164-7.163.51-10.782 1.027a1.357 1.357 0 01-1.544-1.154 1.375 1.375 0 011.174-1.543 116.96 116.96 0 0111.044-1.054 1.355 1.355 0 011.424 1.298 1.373 1.373 0 01-.796 1.297zm-19.744 3.002a1.13 1.13 0 01-.447.231 97.216 97.216 0 00-9.815 3.134 1.524 1.524 0 01-1.838-.86 1.26 1.26 0 01.592-1.78 99.379 99.379 0 0110.053-3.212 1.562 1.562 0 011.773 1.028 1.291 1.291 0 01-.318 1.46z" class="cls-3"></path></g></g></svg>